<svg xmlns="http://www.w3.org/2000/svg" xml:space="preserve" style="fill-rule:evenodd;clip-rule:evenodd;stroke-linejoin:round;stroke-miterlimit:2" viewBox="0 0 345 241"><path d="M15.667 239.918C7.091 238.83 1.183 234.197.175 227.765c-1.246-7.943 4.355-14.537 10.256-12.072 1.818.76 2.197 1.959 1.488 4.697-1.361 5.25-.017 8.243 4.469 9.955 2.641 1.008 7.934.651 11.019-.748 4.022-1.82 6.448-5.429 6.448-9.593 0-4.09-2.104-6.508-10.082-11.588-7.295-4.649-10.375-7.172-12.336-10.11-2.717-4.064-3.254-5.925-3.262-11.283-.006-3.937.131-5.088.859-7.195 2.903-8.402 10.418-14.361 20.508-16.26 5.44-1.023 11.914-.316 16.252 1.772 2.328 1.121 5.358 4.261 6.535 6.771 2.487 5.299 1.953 13.092-1.193 17.434-2.102 2.902-6.08 3.488-8.338 1.23-1.269-1.269-1.307-1.951-.318-5.814 1.316-5.147.865-8.047-1.637-10.543-1.354-1.35-1.887-1.606-4.176-2.004-4.744-.828-9.422.681-12.902 4.162-.881.881-2.047 2.453-2.594 3.494-.871 1.656-.994 2.334-.998 5.453-.012 6.317 1.647 8.451 11.77 15.154 7.88 5.219 10.295 7.504 12.255 11.592 4.268 8.899-.236 19.463-10.406 24.41-1.926.936-4.765 2.024-6.312 2.418-3.336.848-8.674 1.219-11.813.821Zm45.645-3.793c-2.334-.459-5.199-2.147-6.875-4.049-1.99-2.264-2.957-5.484-2.957-9.857 0-7.932 3.088-15.756 8.586-21.752 4.457-4.862 8.881-6.911 14.216-6.586 3.868.234 6.028 1.4 7.75 4.185.95 1.539 1.155 2.297 1.26 4.678.11 2.482.014 3.004-.75 4.121-1.379 2.012-2.674 2.783-4.67 2.783-2.504 0-3.517-1.213-3.517-4.213 0-3.597-1.375-4.187-4.631-1.984-3.16 2.139-7.195 9.012-8.139 13.865-2.031 10.445 4.76 13.578 14.445 6.666 2.922-2.084 7.292-6.728 8.362-8.885.445-.9 1.471-3.183 2.275-5.076 2.889-6.781 7.655-12.513 12.311-14.804 2.162-1.065 2.902-1.237 5.349-1.243 3.782-.005 6.155 1.162 7.942 3.916l.601.926.772-1.744c.918-2.076 2.305-2.924 4.785-2.924 2.254 0 3.928 1.492 3.928 3.5 0 .719-1.709 6.594-3.799 13.055-4.039 12.496-4.406 14.004-3.733 15.262 1.116 2.086 3.903 1.066 7.448-2.723 3.461-3.701 4.908-7.199 8.535-20.656 1.156-4.284 2.408-6.996 3.625-7.848 1.34-.939 3.791-.758 5.144.381.926.779 1.155 1.262 1.155 2.437 0 .807.111 1.467.246 1.467.137 0 1.115-.654 2.176-1.455 3.382-2.555 5.691-3.523 8.849-3.713 3.192-.191 5.233.539 6.694 2.397.914 1.164 1.91 4.265 1.91 5.957 0 1.9-1.285 6.242-4.297 14.535-2.881 7.924-3.176 9.158-2.379 9.955 1.455 1.455 4.465-.439 8.189-5.158 2.088-2.643 2.563-3.545 3.426-6.512 2.363-8.119 6.322-14.211 11.754-18.086 3.238-2.31 6.02-3.25 9.744-3.289 6.469-.066 10.012 3.215 11.094 10.277.605 3.944.861 4.467 2.18 4.467 3.689 0 7.73-3.701 11.082-10.152 2.408-4.635 3.451-5.594 6.091-5.596 1.124 0 1.874.258 2.625.904 1.043.897 1.053.944 1.083 5.532.031 4.521.072 4.74 1.81 9.687 1.889 5.375 2.848 9.496 2.848 12.246v1.682l1.146-.818c1.791-1.274 2.822-3.207 4.098-7.672 1.937-6.785 4.861-11.83 9.221-15.909 3.546-3.316 5.834-4.316 9.91-4.33 3.799-.013 5.547.721 7.361 3.088l1.176 1.532.687-1.528c.885-1.959 2.444-2.912 4.772-2.914 1.519 0 1.994.184 2.953 1.141 1.047 1.049 1.123 1.289.906 2.92-.129.978-2.006 7.084-4.17 13.57-2.166 6.486-3.935 12.24-3.935 12.789 0 .547.304 1.373.677 1.832.549.678.903.789 1.854.58 2.549-.56 6.666-4.775 8.811-9.021.521-1.032 2.31-6.325 3.976-11.762 1.666-5.439 3.277-10.268 3.58-10.73.643-.983 3.211-1.717 4.998-1.432.664.107 1.635.621 2.156 1.142 1.598 1.598 1.331 3.055-2.99 16.219-2.166 6.6-3.937 12.565-3.937 13.254 0 2.379 2.105 3.162 4.795 1.785 2.064-1.056 6.324-5.664 7.38-7.978.5-1.098 1.782-4.951 2.844-8.561 4.1-13.916 4.043-13.756 5.266-14.785 1.66-1.396 4.668-1.375 6.355.045 1.176.988 1.196 1.059.994 3.469-.136 1.646-1.281 5.746-3.46 12.396-4.43 13.516-4.551 14-3.774 15.186 2.385 3.638 9.328-4.174 13.994-15.748 2.676-6.635 2.977-8.121 2.387-11.754-.992-6.11 1.019-9.809 5.336-9.809 2.994 0 4.516 2.121 4.109 5.723-.105.945-.021 1.783.192 1.916.209.129 2.465.584 5.011 1.01 5.295.888 7.307 1.791 8.313 3.728 1.098 2.119.66 4.629-1.938 11.096-2.589 6.447-4.179 11.127-4.179 12.305 0 .443.261 1.181.584 1.64.871 1.244 2.621 1.082 5.058-.471 5.5-3.503 7.948.522 3.364 5.538-2.668 2.919-5.791 4.482-9.372 4.687-3.693.211-5.812-.385-7.548-2.121-3.61-3.609-2.971-8.283 3.185-23.301 1.836-4.476 2.002-5.09 1.434-5.301-.92-.339-6.176-1.484-6.26-1.363-.039.057-.869 2.526-1.844 5.488-2.718 8.256-5.445 13.575-9.496 18.526-3.539 4.326-8.474 7.603-12.099 8.033-4.276.506-7.038-.828-8.454-4.082-.384-.887-.753-1.686-.818-1.773-.064-.088-.58.271-1.144.798-1.551 1.446-5.327 3.858-7.129 4.555-.903.35-2.668.619-4.043.619-4.155 0-6.784-1.642-7.871-4.918l-.596-1.795-2.66 2.233c-4.83 4.054-9.317 5.429-12.717 3.896-1.623-.732-2.949-2.74-2.949-4.463 0-.523-.092-.953-.205-.953-.112 0-1.223.848-2.467 1.885-3.332 2.771-5.629 3.824-8.809 4.033-5.006.328-7.836-1.521-9.199-6.012l-.77-2.533-1.837 1.653c-5.959 5.357-12.645 7.867-18.901 7.097-3.502-.431-5.23-1.166-7.062-2.998-1.711-1.709-2.563-3.539-2.594-5.564-.051-3.291 1.857-5.436 4.836-5.436 1.926 0 3.021.819 3.506 2.619.953 3.539 4.929 3.967 7.58.817 2.203-2.617 2.293-5.864.346-12.365-.639-2.127-1.264-4.034-1.389-4.239-.127-.203-1.047.395-2.047 1.33-3.615 3.381-7.68 5.344-11.971 5.78l-2.42.246-1.052 2.761c-1.377 3.608-4.723 8.704-7.42 11.297-4.666 4.487-10.151 6.537-15.178 5.676-4.184-.717-7.336-3.062-8.703-6.48l-.6-1.5-2.103 2.039c-4.112 3.988-7.924 5.984-11.491 6.015-2.777.026-4.738-.865-6.339-2.875-1.114-1.398-1.149-1.554-1.1-5.062.053-3.949.398-5.217 4.256-15.594 2.262-6.08 2.58-8.684 1.228-10.035-1.308-1.309-3.291-.469-6.781 2.873-4.244 4.062-4.849 5.303-8.14 16.687-1.579 5.459-3.202 10.577-3.606 11.372-.939 1.839-2.791 2.689-5.156 2.365-1.967-.27-2.856-.973-3.428-2.709-.23-.697-.508-1.268-.615-1.268-.11 0-.731.449-1.379.996-5.363 4.53-13.266 3.998-14.344-.963-.437-2.021-.48-2.021-2.679-.005-3.118 2.851-6.252 4.226-9.62 4.214-5.179-.015-8.621-2.74-9.408-7.445-.418-2.498-.474-2.523-1.916-.928-2.086 2.309-5.635 4.844-8.961 6.399-4.523 2.117-8.002 2.644-12.105 1.836v-.002Zm37.23-9.483c2.334-1.088 5.658-4.615 7.565-8.023 2.664-4.764 3.816-10.834 2.605-13.733-.654-1.562-2.285-2.863-3.594-2.863-3.105 0-8.24 5.987-10.668 12.436-2.113 5.615-2.095 10.625.041 12.308 1.227.963 1.75.948 4.051-.125Zm82.602-.084c2.98-1.484 6.037-5.568 7.787-10.402l.82-2.266-.906-1.98c-.498-1.088-1.264-3.463-1.699-5.275-.436-1.815-1.043-3.594-1.35-3.956-1.836-2.16-6.141 1.442-9.189 7.692-1.994 4.084-2.877 7.433-2.877 10.908 0 5.668 2.73 7.613 7.414 5.279Zm64.107-.224c3.596-2.184 7.651-8.569 9.106-14.338 1.623-6.44.349-9.973-3.592-9.973-1.805 0-3.725 1.229-5.93 3.795-1.806 2.102-4.93 8.43-5.713 11.574-.793 3.178-.562 7.545.457 8.678 1.442 1.604 3.323 1.691 5.672.264Zm-75.799-55.662c-15.527-2.805-27.687-13.078-33.017-27.899-3.5-9.734-3.983-20.767-1.518-34.791 2.061-11.732 4.801-17.808 9.928-22.013 2.006-1.645 5.439-3.487 8.262-4.434 1.404-.469 22.187-5.045 28.386-6.248.989-.192 5.088-1.041 9.112-1.887 4.021-.846 13.808-2.867 21.75-4.492a4394.351 4394.351 0 0 0 18.187-3.748c2.063-.436 6.449-1.358 9.75-2.049 8.488-1.777 9.17-1.996 10.571-3.396 1.097-1.098 1.24-1.473 1.238-3.246-.006-2.596-.758-5.014-2.643-8.51-3.367-6.242-8.633-11.387-16.541-16.157-8.26-4.982-23.963-13.904-28.412-16.14-18.205-9.152-34.777-8.164-51.291 3.06-9.125 6.204-15.924 13.608-22.83 24.864-6.201 10.111-9.035 17.685-16.898 45.187-8.998 31.471-11.377 38.184-16.686 47.094-5.98 10.041-13.426 16.416-27.508 23.56-4.898 2.485-6.863 2.743-8.76 1.147-2.488-2.094-2.23-5.25.575-7.045.789-.504 3.797-2.227 6.683-3.824 7.459-4.131 10.43-6.221 14.074-9.895 7.573-7.634 12.831-18.875 18.788-40.162 1.24-4.433 2.64-9.349 3.109-10.924l.855-2.861-2.037-1.625c-4.732-3.777-8.701-8.791-9.715-12.273-1.98-6.811 3.545-10.858 16.356-11.975l3.178-.279.99-2.578.992-2.579-1.992-2.775c-4.807-6.699-6.631-10.779-6.678-14.943-.039-3.35.795-5.153 3.047-6.58.904-.575 2.502-1.248 3.553-1.5 2.416-.58 8.433-.282 12.443.619l2.961.664.9-1.102c.979-1.195.981-1.023-.064-6.726-.301-1.649-.664-4.891-.803-7.203-.211-3.465-.146-4.495.369-5.844 1.262-3.299 3.932-4.824 8.454-4.824 3.832 0 5.867.533 10.601 2.773l4.004 1.895 2.109-1.401c7.957-5.281 18.223-7.986 28.696-7.564 13.238.535 21.881 3.738 43.125 15.984 20.086 11.58 26.035 16.359 31.508 25.309 3.312 5.418 4.959 10.912 4.964 16.58.004 2.988-.13 3.728-1 5.506-1.761 3.599-4.927 5.75-10.588 7.189-3.636.926-24.652 5.395-43.072 9.162-16.469 3.367-38.506 8.018-47.41 10.004-6.551 1.461-9.389 2.873-8.629 4.293.733 1.369 17.377 26.469 20.631 31.111 4.643 6.625 7.15 8.664 11.895 9.672 2.001.424 64.201.647 64.201.229 0-.106-3.239-4.367-7.196-9.469-13.58-17.506-15.054-19.404-16.023-20.621l-.969-1.219h-27.451c-18.939 0-27.728-.125-28.346-.406-1.109-.506-2.14-2.199-2.14-3.514 0-1.47.949-3.041 2.138-3.533.772-.32 8.682-.408 29.924-.334l28.875.1 1.752.865c2.793 1.375 2.44.959 22.276 26.176 9.935 12.633 10.32 13.459 10.574 22.718.242 8.858-.75 12.842-4.399 17.676-2.658 3.522-7.715 6.395-12.929 7.346-1.502.275-13.438.396-36.75.373-28.164-.027-35.071-.133-37.489-.568Zm18.651-43.063c-1.438-.633-1.998-1.586-1.998-3.39 0-.938.283-1.637.92-2.274l.92-.922h19.298c10.616 0 19.573.106 19.907.235.783.3 1.705 2.086 1.705 3.304 0 .522-.491 1.496-1.086 2.166l-1.086 1.215-18.695.096c-15.348.078-18.909 0-19.885-.43Zm-9.582-12.039c-2.143-1.174-2.485-4.037-.696-5.824l1.096-1.098h37.141l1.052.906c.868.747 1.053 1.206 1.053 2.616 0 1.371-.207 1.92-1.041 2.752l-1.039 1.039-18.273.086c-15.616.072-18.42.002-19.293-.477Zm6.455-68c-4.342-1.424-6.75-4.768-6.744-9.375.002-3.059.605-4.783 2.322-6.646 1.695-1.84 4.074-2.776 7.059-2.776 2.638 0 6.15 1.883 7.507 4.024 3.25 5.127 1.545 11.709-3.679 14.187-1.504.713-5.086 1.039-6.465.586Z" style="fill:#eff1f4"/></svg>